<svg width="1024" height="1024" viewBox="0 0 1024 1024" fill="none" xmlns="http://www.w3.org/2000/svg">
<rect width="1024" height="1024" fill="white"/>
<path d="M633.889 551.514L474.095 393.359L536.374 329.442L494.582 287.649L359.371 422.04C350.631 430.781 340.114 435.152 327.822 435.152C315.53 435.152 305.014 430.781 296.273 422.04C286.986 413.299 282.479 402.646 282.752 390.081C283.025 377.516 287.532 366.864 296.273 358.123L425.747 227.829C444.868 208.708 468.359 199.148 496.221 199.148C524.082 199.148 547.846 208.708 567.513 227.829L602.75 263.066L656.015 210.62C668.034 198.602 682.101 192.592 698.217 192.592C714.333 192.592 728.4 198.602 740.419 210.62L814.989 285.191C826.462 297.21 832.061 311.414 831.788 327.803C831.515 344.192 825.916 358.669 814.989 371.234L633.889 551.514Z" fill="#333333"/>
<path d="M207.362 817.838C217.469 828.218 229.897 833.408 244.647 833.408H308.565C322.223 833.408 335.471 830.949 348.309 826.032C361.147 821.116 372.756 813.194 383.136 802.268L591.278 594.126L433.123 434.332L223.342 643.294C212.416 654.22 204.494 666.102 199.577 678.94C194.661 691.778 192.202 704.753 192.202 717.864V780.962C192.202 795.166 197.256 807.458 207.362 817.838Z" fill="#3395FF"/>
</svg>
