<svg width="1024" height="1024" viewBox="0 0 1024 1024" fill="none" xmlns="http://www.w3.org/2000/svg">
<rect width="1024" height="1024" fill="white"/>
<path d="M371.618 849.657C386.606 849.657 398.188 839.091 398.869 822.043L407.385 656.356L448.603 481.464L413.858 508.738H612.112L577.367 481.464L618.925 656.356L627.101 822.043C628.123 839.091 639.363 849.657 654.693 849.657C669.681 849.657 682.965 838.407 681.945 819.998L674.111 653.63C673.768 649.196 673.428 645.787 672.065 641.697L628.463 471.236C626.419 462.714 619.266 457.259 610.75 457.259H415.22C406.704 457.259 399.891 462.714 397.507 471.236L353.904 641.697C352.542 645.787 352.201 649.196 352.201 653.63L344.026 819.998C343.344 838.407 356.289 849.657 371.618 849.657Z" fill="#007AFF"/>
<path d="M411.473 410.553H613.134L541.94 198.501C537.171 184.182 527.633 176 512.985 176C497.656 176 486.755 184.182 481.986 198.501L411.473 410.553Z" fill="black" fill-opacity="0.85"/>
</svg>
